<svg xmlns="http://www.w3.org/2000/svg" xmlns:xlink="http://www.w3.org/1999/xlink" width="500" zoomAndPan="magnify" viewBox="0 0 375 374.999991" height="500" preserveAspectRatio="xMidYMid meet" version="1.0"><defs><clipPath id="2008d639c9"><path d="M 61.40625 40.769531 L 313.59375 40.769531 L 313.59375 334.230469 L 61.40625 334.230469 Z M 61.40625 40.769531 " clip-rule="nonzero"/></clipPath><clipPath id="f0b570e0d7"><path d="M 187.5 40.769531 L 313.59375 114.136719 L 313.59375 260.863281 L 187.5 334.230469 L 61.40625 260.863281 L 61.40625 114.136719 Z M 187.5 40.769531 " clip-rule="nonzero"/></clipPath><linearGradient x1="0.000000245106" gradientTransform="matrix(0.985117, 0, 0, 0.985117, 61.405013, 40.771119)" y1="148.945007" x2="255.999993" gradientUnits="userSpaceOnUse" y2="148.945007" id="0753cacbf8"><stop stop-opacity="1" stop-color="rgb(36.499023%, 87.799072%, 90.19928%)" offset="0"/><stop stop-opacity="1" stop-color="rgb(36.355591%, 87.568665%, 90.110779%)" offset="0.00390625"/><stop stop-opacity="1" stop-color="rgb(36.213684%, 87.339783%, 90.023804%)" offset="0.0078125"/><stop stop-opacity="1" stop-color="rgb(36.070251%, 87.109375%, 89.936829%)" offset="0.0117187"/><stop stop-opacity="1" stop-color="rgb(35.928345%, 86.880493%, 89.849854%)" offset="0.015625"/><stop stop-opacity="1" stop-color="rgb(35.784912%, 86.650085%, 89.761353%)" offset="0.0195312"/><stop stop-opacity="1" stop-color="rgb(35.643005%, 86.421204%, 89.674377%)" offset="0.0234375"/><stop stop-opacity="1" stop-color="rgb(35.501099%, 86.190796%, 89.585876%)" offset="0.0273438"/><stop stop-opacity="1" stop-color="rgb(35.359192%, 85.961914%, 89.498901%)" offset="0.03125"/><stop stop-opacity="1" stop-color="rgb(35.215759%, 85.731506%, 89.411926%)" offset="0.0351562"/><stop stop-opacity="1" stop-color="rgb(35.073853%, 85.502625%, 89.324951%)" offset="0.0390625"/><stop stop-opacity="1" stop-color="rgb(34.93042%, 85.272217%, 89.23645%)" offset="0.0429688"/><stop stop-opacity="1" stop-color="rgb(34.788513%, 85.043335%, 89.149475%)" offset="0.046875"/><stop stop-opacity="1" stop-color="rgb(34.645081%, 84.812927%, 89.060974%)" offset="0.0507812"/><stop stop-opacity="1" stop-color="rgb(34.503174%, 84.584045%, 88.973999%)" offset="0.0546875"/><stop stop-opacity="1" stop-color="rgb(34.359741%, 84.353638%, 88.885498%)" offset="0.0585938"/><stop stop-opacity="1" stop-color="rgb(34.217834%, 84.124756%, 88.798523%)" offset="0.0625"/><stop stop-opacity="1" stop-color="rgb(34.074402%, 83.894348%, 88.711548%)" offset="0.0664062"/><stop stop-opacity="1" stop-color="rgb(33.932495%, 83.665466%, 88.624573%)" offset="0.0703125"/><stop stop-opacity="1" stop-color="rgb(33.789062%, 83.435059%, 88.536072%)" offset="0.0742188"/><stop stop-opacity="1" stop-color="rgb(33.647156%, 83.206177%, 88.449097%)" offset="0.078125"/><stop stop-opacity="1" stop-color="rgb(33.503723%, 82.975769%, 88.360596%)" offset="0.0820312"/><stop stop-opacity="1" stop-color="rgb(33.361816%, 82.745361%, 88.273621%)" offset="0.0859375"/><stop stop-opacity="1" stop-color="rgb(33.21991%, 82.514954%, 88.186646%)" offset="0.0898438"/><stop stop-opacity="1" stop-color="rgb(33.078003%, 82.286072%, 88.09967%)" offset="0.09375"/><stop stop-opacity="1" stop-color="rgb(32.93457%, 82.055664%, 88.011169%)" offset="0.0976563"/><stop stop-opacity="1" stop-color="rgb(32.792664%, 81.826782%, 87.924194%)" offset="0.101562"/><stop stop-opacity="1" stop-color="rgb(32.649231%, 81.596375%, 87.835693%)" offset="0.105469"/><stop stop-opacity="1" stop-color="rgb(32.507324%, 81.367493%, 87.748718%)" offset="0.109375"/><stop stop-opacity="1" stop-color="rgb(32.363892%, 81.137085%, 87.661743%)" offset="0.113281"/><stop stop-opacity="1" stop-color="rgb(32.221985%, 80.908203%, 87.574768%)" offset="0.117188"/><stop stop-opacity="1" stop-color="rgb(32.078552%, 80.677795%, 87.486267%)" offset="0.121094"/><stop stop-opacity="1" stop-color="rgb(31.936646%, 80.448914%, 87.399292%)" offset="0.125"/><stop stop-opacity="1" stop-color="rgb(31.793213%, 80.218506%, 87.310791%)" offset="0.128906"/><stop stop-opacity="1" stop-color="rgb(31.651306%, 79.989624%, 87.223816%)" offset="0.132812"/><stop stop-opacity="1" stop-color="rgb(31.507874%, 79.759216%, 87.136841%)" offset="0.136719"/><stop stop-opacity="1" stop-color="rgb(31.365967%, 79.530334%, 87.049866%)" offset="0.140625"/><stop stop-opacity="1" stop-color="rgb(31.222534%, 79.299927%, 86.961365%)" offset="0.144531"/><stop stop-opacity="1" stop-color="rgb(31.080627%, 79.071045%, 86.87439%)" offset="0.148438"/><stop stop-opacity="1" stop-color="rgb(30.938721%, 78.840637%, 86.785889%)" offset="0.152344"/><stop stop-opacity="1" stop-color="rgb(30.796814%, 78.611755%, 86.698914%)" offset="0.15625"/><stop stop-opacity="1" stop-color="rgb(30.653381%, 78.381348%, 86.611938%)" offset="0.160156"/><stop stop-opacity="1" stop-color="rgb(30.511475%, 78.152466%, 86.524963%)" offset="0.164062"/><stop stop-opacity="1" stop-color="rgb(30.368042%, 77.922058%, 86.436462%)" offset="0.167969"/><stop stop-opacity="1" stop-color="rgb(30.226135%, 77.693176%, 86.349487%)" offset="0.171875"/><stop stop-opacity="1" stop-color="rgb(30.082703%, 77.462769%, 86.260986%)" offset="0.175781"/><stop stop-opacity="1" stop-color="rgb(29.940796%, 77.233887%, 86.174011%)" offset="0.179688"/><stop stop-opacity="1" stop-color="rgb(29.797363%, 77.003479%, 86.08551%)" offset="0.183594"/><stop stop-opacity="1" stop-color="rgb(29.655457%, 76.774597%, 85.998535%)" offset="0.1875"/><stop stop-opacity="1" stop-color="rgb(29.512024%, 76.544189%, 85.91156%)" offset="0.191406"/><stop stop-opacity="1" stop-color="rgb(29.370117%, 76.315308%, 85.824585%)" offset="0.195312"/><stop stop-opacity="1" stop-color="rgb(29.226685%, 76.0849%, 85.736084%)" offset="0.199219"/><stop stop-opacity="1" stop-color="rgb(29.084778%, 75.856018%, 85.649109%)" offset="0.203125"/><stop stop-opacity="1" stop-color="rgb(28.941345%, 75.62561%, 85.560608%)" offset="0.207031"/><stop stop-opacity="1" stop-color="rgb(28.799438%, 75.396729%, 85.473633%)" offset="0.210938"/><stop stop-opacity="1" stop-color="rgb(28.657532%, 75.166321%, 85.386658%)" offset="0.214844"/><stop stop-opacity="1" stop-color="rgb(28.515625%, 74.937439%, 85.299683%)" offset="0.21875"/><stop stop-opacity="1" stop-color="rgb(28.372192%, 74.707031%, 85.211182%)" offset="0.222656"/><stop stop-opacity="1" stop-color="rgb(28.230286%, 74.476624%, 85.124207%)" offset="0.226563"/><stop stop-opacity="1" stop-color="rgb(28.086853%, 74.246216%, 85.035706%)" offset="0.230469"/><stop stop-opacity="1" stop-color="rgb(27.944946%, 74.017334%, 84.94873%)" offset="0.234375"/><stop stop-opacity="1" stop-color="rgb(27.801514%, 73.786926%, 84.861755%)" offset="0.238281"/><stop stop-opacity="1" stop-color="rgb(27.659607%, 73.558044%, 84.77478%)" offset="0.242188"/><stop stop-opacity="1" stop-color="rgb(27.516174%, 73.327637%, 84.686279%)" offset="0.246094"/><stop stop-opacity="1" stop-color="rgb(27.374268%, 73.098755%, 84.599304%)" offset="0.25"/><stop stop-opacity="1" stop-color="rgb(27.230835%, 72.868347%, 84.510803%)" offset="0.253906"/><stop stop-opacity="1" stop-color="rgb(27.088928%, 72.639465%, 84.423828%)" offset="0.257813"/><stop stop-opacity="1" stop-color="rgb(26.945496%, 72.409058%, 84.336853%)" offset="0.261719"/><stop stop-opacity="1" stop-color="rgb(26.803589%, 72.180176%, 84.249878%)" offset="0.265625"/><stop stop-opacity="1" stop-color="rgb(26.660156%, 71.949768%, 84.161377%)" offset="0.269531"/><stop stop-opacity="1" stop-color="rgb(26.51825%, 71.720886%, 84.074402%)" offset="0.273437"/><stop stop-opacity="1" stop-color="rgb(26.374817%, 71.490479%, 83.985901%)" offset="0.277344"/><stop stop-opacity="1" stop-color="rgb(26.23291%, 71.261597%, 83.898926%)" offset="0.28125"/><stop stop-opacity="1" stop-color="rgb(26.091003%, 71.031189%, 83.811951%)" offset="0.285156"/><stop stop-opacity="1" stop-color="rgb(25.949097%, 70.802307%, 83.724976%)" offset="0.289062"/><stop stop-opacity="1" stop-color="rgb(25.805664%, 70.571899%, 83.636475%)" offset="0.292969"/><stop stop-opacity="1" stop-color="rgb(25.663757%, 70.343018%, 83.5495%)" offset="0.296875"/><stop stop-opacity="1" stop-color="rgb(25.520325%, 70.11261%, 83.460999%)" offset="0.300781"/><stop stop-opacity="1" stop-color="rgb(25.378418%, 69.883728%, 83.374023%)" offset="0.304688"/><stop stop-opacity="1" stop-color="rgb(25.234985%, 69.65332%, 83.285522%)" offset="0.308594"/><stop stop-opacity="1" stop-color="rgb(25.093079%, 69.424438%, 83.198547%)" offset="0.3125"/><stop stop-opacity="1" stop-color="rgb(24.949646%, 69.194031%, 83.111572%)" offset="0.316406"/><stop stop-opacity="1" stop-color="rgb(24.807739%, 68.965149%, 83.024597%)" offset="0.320312"/><stop stop-opacity="1" stop-color="rgb(24.664307%, 68.734741%, 82.936096%)" offset="0.324219"/><stop stop-opacity="1" stop-color="rgb(24.5224%, 68.505859%, 82.849121%)" offset="0.328125"/><stop stop-opacity="1" stop-color="rgb(24.378967%, 68.275452%, 82.76062%)" offset="0.332031"/><stop stop-opacity="1" stop-color="rgb(24.237061%, 68.04657%, 82.673645%)" offset="0.335938"/><stop stop-opacity="1" stop-color="rgb(24.093628%, 67.816162%, 82.58667%)" offset="0.339844"/><stop stop-opacity="1" stop-color="rgb(23.951721%, 67.58728%, 82.499695%)" offset="0.34375"/><stop stop-opacity="1" stop-color="rgb(23.809814%, 67.356873%, 82.411194%)" offset="0.347656"/><stop stop-opacity="1" stop-color="rgb(23.667908%, 67.127991%, 82.324219%)" offset="0.351563"/><stop stop-opacity="1" stop-color="rgb(23.524475%, 66.897583%, 82.235718%)" offset="0.355469"/><stop stop-opacity="1" stop-color="rgb(23.382568%, 66.668701%, 82.148743%)" offset="0.359375"/><stop stop-opacity="1" stop-color="rgb(23.239136%, 66.438293%, 82.061768%)" offset="0.363281"/><stop stop-opacity="1" stop-color="rgb(23.097229%, 66.207886%, 81.974792%)" offset="0.367187"/><stop stop-opacity="1" stop-color="rgb(22.953796%, 65.977478%, 81.886292%)" offset="0.371094"/><stop stop-opacity="1" stop-color="rgb(22.81189%, 65.748596%, 81.799316%)" offset="0.375"/><stop stop-opacity="1" stop-color="rgb(22.668457%, 65.518188%, 81.710815%)" offset="0.378906"/><stop stop-opacity="1" stop-color="rgb(22.52655%, 65.289307%, 81.62384%)" offset="0.382812"/><stop stop-opacity="1" stop-color="rgb(22.383118%, 65.058899%, 81.536865%)" offset="0.386719"/><stop stop-opacity="1" stop-color="rgb(22.241211%, 64.830017%, 81.44989%)" offset="0.390625"/><stop stop-opacity="1" stop-color="rgb(22.097778%, 64.599609%, 81.361389%)" offset="0.394531"/><stop stop-opacity="1" stop-color="rgb(21.955872%, 64.370728%, 81.274414%)" offset="0.398438"/><stop stop-opacity="1" stop-color="rgb(21.812439%, 64.14032%, 81.185913%)" offset="0.402344"/><stop stop-opacity="1" stop-color="rgb(21.670532%, 63.911438%, 81.098938%)" offset="0.40625"/><stop stop-opacity="1" stop-color="rgb(21.528625%, 63.68103%, 81.011963%)" offset="0.410156"/><stop stop-opacity="1" stop-color="rgb(21.386719%, 63.452148%, 80.924988%)" offset="0.414062"/><stop stop-opacity="1" stop-color="rgb(21.243286%, 63.221741%, 80.836487%)" offset="0.417969"/><stop stop-opacity="1" stop-color="rgb(21.101379%, 62.992859%, 80.749512%)" offset="0.421875"/><stop stop-opacity="1" stop-color="rgb(20.957947%, 62.762451%, 80.661011%)" offset="0.425781"/><stop stop-opacity="1" stop-color="rgb(20.81604%, 62.533569%, 80.574036%)" offset="0.429687"/><stop stop-opacity="1" stop-color="rgb(20.672607%, 62.303162%, 80.485535%)" offset="0.433594"/><stop stop-opacity="1" stop-color="rgb(20.530701%, 62.07428%, 80.39856%)" offset="0.4375"/><stop stop-opacity="1" stop-color="rgb(20.387268%, 61.843872%, 80.311584%)" offset="0.441406"/><stop stop-opacity="1" stop-color="rgb(20.245361%, 61.61499%, 80.224609%)" offset="0.445312"/><stop stop-opacity="1" stop-color="rgb(20.101929%, 61.384583%, 80.136108%)" offset="0.449219"/><stop stop-opacity="1" stop-color="rgb(19.960022%, 61.155701%, 80.049133%)" offset="0.453125"/><stop stop-opacity="1" stop-color="rgb(19.816589%, 60.925293%, 79.960632%)" offset="0.457031"/><stop stop-opacity="1" stop-color="rgb(19.674683%, 60.696411%, 79.873657%)" offset="0.460937"/><stop stop-opacity="1" stop-color="rgb(19.53125%, 60.466003%, 79.786682%)" offset="0.464844"/><stop stop-opacity="1" stop-color="rgb(19.389343%, 60.237122%, 79.699707%)" offset="0.46875"/><stop stop-opacity="1" stop-color="rgb(19.245911%, 60.006714%, 79.611206%)" offset="0.472656"/><stop stop-opacity="1" stop-color="rgb(19.104004%, 59.777832%, 79.524231%)" offset="0.476562"/><stop stop-opacity="1" stop-color="rgb(18.962097%, 59.547424%, 79.43573%)" offset="0.480469"/><stop stop-opacity="1" stop-color="rgb(18.82019%, 59.318542%, 79.348755%)" offset="0.484375"/><stop stop-opacity="1" stop-color="rgb(18.676758%, 59.088135%, 79.26178%)" offset="0.488281"/><stop stop-opacity="1" stop-color="rgb(18.534851%, 58.859253%, 79.174805%)" offset="0.492188"/><stop stop-opacity="1" stop-color="rgb(18.391418%, 58.628845%, 79.086304%)" offset="0.496094"/><stop stop-opacity="1" stop-color="rgb(18.249512%, 58.399963%, 78.999329%)" offset="0.5"/><stop stop-opacity="1" stop-color="rgb(18.106079%, 58.169556%, 78.910828%)" offset="0.503906"/><stop stop-opacity="1" stop-color="rgb(17.964172%, 57.939148%, 78.823853%)" offset="0.507812"/><stop stop-opacity="1" stop-color="rgb(17.82074%, 57.70874%, 78.736877%)" offset="0.511719"/><stop stop-opacity="1" stop-color="rgb(17.678833%, 57.479858%, 78.649902%)" offset="0.515625"/><stop stop-opacity="1" stop-color="rgb(17.5354%, 57.249451%, 78.561401%)" offset="0.519531"/><stop stop-opacity="1" stop-color="rgb(17.393494%, 57.020569%, 78.474426%)" offset="0.523437"/><stop stop-opacity="1" stop-color="rgb(17.250061%, 56.790161%, 78.385925%)" offset="0.527344"/><stop stop-opacity="1" stop-color="rgb(17.108154%, 56.561279%, 78.29895%)" offset="0.53125"/><stop stop-opacity="1" stop-color="rgb(16.964722%, 56.330872%, 78.211975%)" offset="0.535156"/><stop stop-opacity="1" stop-color="rgb(16.822815%, 56.10199%, 78.125%)" offset="0.539062"/><stop stop-opacity="1" stop-color="rgb(16.680908%, 55.871582%, 78.036499%)" offset="0.542969"/><stop stop-opacity="1" stop-color="rgb(16.539001%, 55.6427%, 77.949524%)" offset="0.546875"/><stop stop-opacity="1" stop-color="rgb(16.395569%, 55.412292%, 77.861023%)" offset="0.550781"/><stop stop-opacity="1" stop-color="rgb(16.253662%, 55.183411%, 77.774048%)" offset="0.554688"/><stop stop-opacity="1" stop-color="rgb(16.110229%, 54.953003%, 77.685547%)" offset="0.558594"/><stop stop-opacity="1" stop-color="rgb(15.968323%, 54.724121%, 77.598572%)" offset="0.5625"/><stop stop-opacity="1" stop-color="rgb(15.82489%, 54.493713%, 77.511597%)" offset="0.566406"/><stop stop-opacity="1" stop-color="rgb(15.682983%, 54.264832%, 77.424622%)" offset="0.570313"/><stop stop-opacity="1" stop-color="rgb(15.539551%, 54.034424%, 77.336121%)" offset="0.574219"/><stop stop-opacity="1" stop-color="rgb(15.397644%, 53.805542%, 77.249146%)" offset="0.578125"/><stop stop-opacity="1" stop-color="rgb(15.254211%, 53.575134%, 77.160645%)" offset="0.582031"/><stop stop-opacity="1" stop-color="rgb(15.112305%, 53.346252%, 77.073669%)" offset="0.585938"/><stop stop-opacity="1" stop-color="rgb(14.968872%, 53.115845%, 76.986694%)" offset="0.589844"/><stop stop-opacity="1" stop-color="rgb(14.826965%, 52.886963%, 76.899719%)" offset="0.59375"/><stop stop-opacity="1" stop-color="rgb(14.683533%, 52.656555%, 76.811218%)" offset="0.597656"/><stop stop-opacity="1" stop-color="rgb(14.541626%, 52.427673%, 76.724243%)" offset="0.601562"/><stop stop-opacity="1" stop-color="rgb(14.399719%, 52.197266%, 76.635742%)" offset="0.605469"/><stop stop-opacity="1" stop-color="rgb(14.257812%, 51.968384%, 76.548767%)" offset="0.609375"/><stop stop-opacity="1" stop-color="rgb(14.11438%, 51.737976%, 76.461792%)" offset="0.613281"/><stop stop-opacity="1" stop-color="rgb(13.972473%, 51.509094%, 76.374817%)" offset="0.617188"/><stop stop-opacity="1" stop-color="rgb(13.829041%, 51.278687%, 76.286316%)" offset="0.621094"/><stop stop-opacity="1" stop-color="rgb(13.687134%, 51.049805%, 76.199341%)" offset="0.625"/><stop stop-opacity="1" stop-color="rgb(13.543701%, 50.819397%, 76.11084%)" offset="0.628906"/><stop stop-opacity="1" stop-color="rgb(13.401794%, 50.590515%, 76.023865%)" offset="0.632812"/><stop stop-opacity="1" stop-color="rgb(13.258362%, 50.360107%, 75.93689%)" offset="0.636719"/><stop stop-opacity="1" stop-color="rgb(13.116455%, 50.131226%, 75.849915%)" offset="0.640625"/><stop stop-opacity="1" stop-color="rgb(12.973022%, 49.900818%, 75.761414%)" offset="0.644531"/><stop stop-opacity="1" stop-color="rgb(12.831116%, 49.67041%, 75.674438%)" offset="0.648438"/><stop stop-opacity="1" stop-color="rgb(12.687683%, 49.440002%, 75.585938%)" offset="0.652344"/><stop stop-opacity="1" stop-color="rgb(12.545776%, 49.211121%, 75.498962%)" offset="0.65625"/><stop stop-opacity="1" stop-color="rgb(12.402344%, 48.980713%, 75.410461%)" offset="0.660156"/><stop stop-opacity="1" stop-color="rgb(12.260437%, 48.751831%, 75.323486%)" offset="0.664062"/><stop stop-opacity="1" stop-color="rgb(12.117004%, 48.521423%, 75.236511%)" offset="0.667969"/><stop stop-opacity="1" stop-color="rgb(11.975098%, 48.292542%, 75.149536%)" offset="0.671875"/><stop stop-opacity="1" stop-color="rgb(11.833191%, 48.062134%, 75.061035%)" offset="0.675781"/><stop stop-opacity="1" stop-color="rgb(11.691284%, 47.833252%, 74.97406%)" offset="0.679687"/><stop stop-opacity="1" stop-color="rgb(11.547852%, 47.602844%, 74.885559%)" offset="0.683594"/><stop stop-opacity="1" stop-color="rgb(11.405945%, 47.373962%, 74.798584%)" offset="0.6875"/><stop stop-opacity="1" stop-color="rgb(11.262512%, 47.143555%, 74.711609%)" offset="0.691406"/><stop stop-opacity="1" stop-color="rgb(11.120605%, 46.914673%, 74.624634%)" offset="0.695312"/><stop stop-opacity="1" stop-color="rgb(10.977173%, 46.684265%, 74.536133%)" offset="0.699219"/><stop stop-opacity="1" stop-color="rgb(10.835266%, 46.455383%, 74.449158%)" offset="0.703125"/><stop stop-opacity="1" stop-color="rgb(10.691833%, 46.224976%, 74.360657%)" offset="0.707031"/><stop stop-opacity="1" stop-color="rgb(10.549927%, 45.996094%, 74.273682%)" offset="0.710937"/><stop stop-opacity="1" stop-color="rgb(10.406494%, 45.765686%, 74.186707%)" offset="0.714844"/><stop stop-opacity="1" stop-color="rgb(10.264587%, 45.536804%, 74.099731%)" offset="0.71875"/><stop stop-opacity="1" stop-color="rgb(10.121155%, 45.306396%, 74.01123%)" offset="0.722656"/><stop stop-opacity="1" stop-color="rgb(9.979248%, 45.077515%, 73.924255%)" offset="0.726562"/><stop stop-opacity="1" stop-color="rgb(9.835815%, 44.847107%, 73.835754%)" offset="0.730469"/><stop stop-opacity="1" stop-color="rgb(9.693909%, 44.618225%, 73.748779%)" offset="0.734375"/><stop stop-opacity="1" stop-color="rgb(9.552002%, 44.387817%, 73.661804%)" offset="0.738281"/><stop stop-opacity="1" stop-color="rgb(9.410095%, 44.158936%, 73.574829%)" offset="0.742188"/><stop stop-opacity="1" stop-color="rgb(9.266663%, 43.928528%, 73.486328%)" offset="0.746094"/><stop stop-opacity="1" stop-color="rgb(9.124756%, 43.699646%, 73.399353%)" offset="0.75"/><stop stop-opacity="1" stop-color="rgb(8.981323%, 43.469238%, 73.310852%)" offset="0.753906"/><stop stop-opacity="1" stop-color="rgb(8.839417%, 43.240356%, 73.223877%)" offset="0.757813"/><stop stop-opacity="1" stop-color="rgb(8.695984%, 43.009949%, 73.136902%)" offset="0.761719"/><stop stop-opacity="1" stop-color="rgb(8.554077%, 42.781067%, 73.049927%)" offset="0.765625"/><stop stop-opacity="1" stop-color="rgb(8.410645%, 42.550659%, 72.961426%)" offset="0.769531"/><stop stop-opacity="1" stop-color="rgb(8.268738%, 42.321777%, 72.874451%)" offset="0.773438"/><stop stop-opacity="1" stop-color="rgb(8.125305%, 42.09137%, 72.78595%)" offset="0.777344"/><stop stop-opacity="1" stop-color="rgb(7.983398%, 41.862488%, 72.698975%)" offset="0.78125"/><stop stop-opacity="1" stop-color="rgb(7.839966%, 41.63208%, 72.610474%)" offset="0.785156"/><stop stop-opacity="1" stop-color="rgb(7.698059%, 41.401672%, 72.523499%)" offset="0.789062"/><stop stop-opacity="1" stop-color="rgb(7.554626%, 41.171265%, 72.436523%)" offset="0.792969"/><stop stop-opacity="1" stop-color="rgb(7.41272%, 40.942383%, 72.349548%)" offset="0.796875"/><stop stop-opacity="1" stop-color="rgb(7.270813%, 40.711975%, 72.261047%)" offset="0.800781"/><stop stop-opacity="1" stop-color="rgb(7.128906%, 40.483093%, 72.174072%)" offset="0.804688"/><stop stop-opacity="1" stop-color="rgb(6.985474%, 40.252686%, 72.085571%)" offset="0.808594"/><stop stop-opacity="1" stop-color="rgb(6.843567%, 40.023804%, 71.998596%)" offset="0.8125"/><stop stop-opacity="1" stop-color="rgb(6.700134%, 39.793396%, 71.911621%)" offset="0.816406"/><stop stop-opacity="1" stop-color="rgb(6.558228%, 39.564514%, 71.824646%)" offset="0.820312"/><stop stop-opacity="1" stop-color="rgb(6.414795%, 39.334106%, 71.736145%)" offset="0.824219"/><stop stop-opacity="1" stop-color="rgb(6.272888%, 39.105225%, 71.64917%)" offset="0.828125"/><stop stop-opacity="1" stop-color="rgb(6.129456%, 38.874817%, 71.560669%)" offset="0.832031"/><stop stop-opacity="1" stop-color="rgb(5.987549%, 38.645935%, 71.473694%)" offset="0.835938"/><stop stop-opacity="1" stop-color="rgb(5.844116%, 38.415527%, 71.386719%)" offset="0.839844"/><stop stop-opacity="1" stop-color="rgb(5.702209%, 38.186646%, 71.299744%)" offset="0.84375"/><stop stop-opacity="1" stop-color="rgb(5.558777%, 37.956238%, 71.211243%)" offset="0.847656"/><stop stop-opacity="1" stop-color="rgb(5.41687%, 37.727356%, 71.124268%)" offset="0.851562"/><stop stop-opacity="1" stop-color="rgb(5.273438%, 37.496948%, 71.035767%)" offset="0.855469"/><stop stop-opacity="1" stop-color="rgb(5.131531%, 37.268066%, 70.948792%)" offset="0.859375"/><stop stop-opacity="1" stop-color="rgb(4.988098%, 37.037659%, 70.861816%)" offset="0.863281"/><stop stop-opacity="1" stop-color="rgb(4.846191%, 36.808777%, 70.774841%)" offset="0.867187"/><stop stop-opacity="1" stop-color="rgb(4.704285%, 36.578369%, 70.68634%)" offset="0.871094"/><stop stop-opacity="1" stop-color="rgb(4.562378%, 36.349487%, 70.599365%)" offset="0.875"/><stop stop-opacity="1" stop-color="rgb(4.418945%, 36.11908%, 70.510864%)" offset="0.878906"/><stop stop-opacity="1" stop-color="rgb(4.277039%, 35.890198%, 70.423889%)" offset="0.882812"/><stop stop-opacity="1" stop-color="rgb(4.133606%, 35.65979%, 70.336914%)" offset="0.886719"/><stop stop-opacity="1" stop-color="rgb(3.991699%, 35.430908%, 70.249939%)" offset="0.890625"/><stop stop-opacity="1" stop-color="rgb(3.848267%, 35.2005%, 70.161438%)" offset="0.894531"/><stop stop-opacity="1" stop-color="rgb(3.70636%, 34.971619%, 70.074463%)" offset="0.898437"/><stop stop-opacity="1" stop-color="rgb(3.562927%, 34.741211%, 69.985962%)" offset="0.902344"/><stop stop-opacity="1" stop-color="rgb(3.421021%, 34.512329%, 69.898987%)" offset="0.90625"/><stop stop-opacity="1" stop-color="rgb(3.277588%, 34.281921%, 69.810486%)" offset="0.910156"/><stop stop-opacity="1" stop-color="rgb(3.135681%, 34.05304%, 69.723511%)" offset="0.914063"/><stop stop-opacity="1" stop-color="rgb(2.992249%, 33.822632%, 69.636536%)" offset="0.917969"/><stop stop-opacity="1" stop-color="rgb(2.850342%, 33.59375%, 69.549561%)" offset="0.921875"/><stop stop-opacity="1" stop-color="rgb(2.706909%, 33.363342%, 69.46106%)" offset="0.925781"/><stop stop-opacity="1" stop-color="rgb(2.565002%, 33.132935%, 69.374084%)" offset="0.929688"/><stop stop-opacity="1" stop-color="rgb(2.423096%, 32.902527%, 69.285583%)" offset="0.933594"/><stop stop-opacity="1" stop-color="rgb(2.281189%, 32.673645%, 69.198608%)" offset="0.9375"/><stop stop-opacity="1" stop-color="rgb(2.137756%, 32.443237%, 69.111633%)" offset="0.941406"/><stop stop-opacity="1" stop-color="rgb(1.99585%, 32.214355%, 69.024658%)" offset="0.945313"/><stop stop-opacity="1" stop-color="rgb(1.852417%, 31.983948%, 68.936157%)" offset="0.949219"/><stop stop-opacity="1" stop-color="rgb(1.71051%, 31.755066%, 68.849182%)" offset="0.953125"/><stop stop-opacity="1" stop-color="rgb(1.567078%, 31.524658%, 68.760681%)" offset="0.957031"/><stop stop-opacity="1" stop-color="rgb(1.425171%, 31.295776%, 68.673706%)" offset="0.960938"/><stop stop-opacity="1" stop-color="rgb(1.281738%, 31.065369%, 68.586731%)" offset="0.964844"/><stop stop-opacity="1" stop-color="rgb(1.139832%, 30.836487%, 68.499756%)" offset="0.96875"/><stop stop-opacity="1" stop-color="rgb(0.996399%, 30.606079%, 68.411255%)" offset="0.972656"/><stop stop-opacity="1" stop-color="rgb(0.854492%, 30.377197%, 68.32428%)" offset="0.976562"/><stop stop-opacity="1" stop-color="rgb(0.71106%, 30.14679%, 68.235779%)" offset="0.980469"/><stop stop-opacity="1" stop-color="rgb(0.569153%, 29.917908%, 68.148804%)" offset="0.984375"/><stop stop-opacity="1" stop-color="rgb(0.42572%, 29.6875%, 68.061829%)" offset="0.988281"/><stop stop-opacity="1" stop-color="rgb(0.283813%, 29.458618%, 67.974854%)" offset="0.992188"/><stop stop-opacity="1" stop-color="rgb(0.141907%, 29.22821%, 67.886353%)" offset="0.996094"/><stop stop-opacity="1" stop-color="rgb(0%, 28.999329%, 67.799377%)" offset="1"/></linearGradient><clipPath id="9eec50bc1d"><path d="M 77.777344 59.824219 L 297.222656 59.824219 L 297.222656 315.269531 L 77.777344 315.269531 Z M 77.777344 59.824219 " clip-rule="nonzero"/></clipPath><clipPath id="77db708f5e"><path d="M 187.5 59.824219 L 297.222656 123.660156 L 297.222656 251.339844 L 187.5 315.175781 L 77.777344 251.339844 L 77.777344 123.660156 Z M 187.5 59.824219 " clip-rule="nonzero"/></clipPath><clipPath id="e5a198903f"><path d="M 96.089844 141 L 279 141 L 279 234 L 96.089844 234 Z M 96.089844 141 " clip-rule="nonzero"/></clipPath></defs><g clip-path="url(#2008d639c9)"><g clip-path="url(#f0b570e0d7)"><path fill="url(#0753cacbf8)" d="M 61.40625 40.769531 L 61.40625 334.230469 L 313.59375 334.230469 L 313.59375 40.769531 Z M 61.40625 40.769531 " fill-rule="nonzero"/></g></g><g clip-path="url(#9eec50bc1d)"><g clip-path="url(#77db708f5e)"><path fill="#ffffff" d="M 77.777344 59.824219 L 297.222656 59.824219 L 297.222656 315.269531 L 77.777344 315.269531 Z M 77.777344 59.824219 " fill-opacity="1" fill-rule="nonzero"/></g></g><path fill="#38b6ff" d="M 187.875 172.261719 C 196.253906 172.261719 203.109375 179.117188 203.109375 187.496094 C 203.109375 195.875 196.253906 202.730469 187.875 202.730469 C 179.496094 202.730469 172.640625 195.875 172.640625 187.496094 C 172.640625 179.117188 179.496094 172.261719 187.875 172.261719 M 187.875 164.644531 C 174.925781 164.644531 165.023438 174.546875 165.023438 187.496094 C 165.023438 200.445312 174.925781 210.347656 187.875 210.347656 C 200.824219 210.347656 210.726562 200.445312 210.726562 187.496094 C 210.726562 174.546875 200.824219 164.644531 187.875 164.644531 Z M 187.875 164.644531 " fill-opacity="1" fill-rule="nonzero"/><path fill="#38b6ff" d="M 189.398438 188.257812 C 189.398438 189.78125 189.398438 191.304688 188.636719 192.066406 C 187.113281 194.351562 185.589844 195.875 185.589844 198.921875 C 185.589844 201.207031 185.589844 203.492188 187.113281 205.777344 C 187.113281 205.777344 184.828125 205.777344 184.828125 205.015625 C 184.066406 205.015625 183.304688 204.253906 182.542969 203.492188 C 181.019531 202.730469 181.019531 201.207031 180.257812 199.683594 C 178.734375 196.636719 176.449219 194.351562 175.6875 191.304688 C 174.925781 189.019531 175.6875 188.257812 177.210938 187.496094 C 178.734375 185.972656 179.496094 182.925781 176.449219 183.6875 C 174.925781 183.6875 174.925781 185.210938 174.164062 185.972656 C 173.402344 185.972656 172.640625 185.210938 171.878906 184.449219 C 171.117188 182.925781 171.878906 180.640625 172.640625 179.117188 C 173.402344 177.59375 172.640625 176.070312 173.402344 174.546875 C 174.164062 172.261719 176.449219 170.738281 178.734375 169.976562 C 182.542969 168.453125 187.875 168.453125 187.113281 173.785156 C 187.113281 174.546875 186.351562 175.308594 185.589844 176.070312 C 185.589844 176.832031 186.351562 181.402344 184.828125 180.640625 C 184.066406 179.117188 182.542969 178.355469 181.78125 179.878906 C 181.019531 180.640625 181.019531 182.164062 181.78125 182.925781 C 183.304688 184.449219 187.113281 182.925781 189.398438 182.925781 C 190.160156 182.925781 190.160156 183.6875 190.921875 185.210938 C 189.398438 186.734375 189.398438 187.496094 189.398438 188.257812 Z M 189.398438 188.257812 " fill-opacity="1" fill-rule="nonzero"/><path fill="#38b6ff" d="M 194.730469 179.878906 C 194.730469 181.402344 193.96875 182.925781 193.96875 184.449219 C 193.96875 188.257812 197.777344 184.449219 199.300781 185.210938 C 200.0625 185.972656 200.0625 188.257812 200.0625 189.019531 C 200.0625 191.304688 199.300781 193.589844 198.539062 195.875 C 197.777344 198.160156 198.539062 200.445312 201.585938 198.160156 C 204.632812 195.113281 204.632812 189.019531 203.871094 185.210938 C 203.109375 181.402344 202.347656 178.355469 200.0625 175.308594 C 200.0625 174.546875 199.300781 173.785156 198.539062 173.023438 C 197.777344 170.738281 195.492188 178.355469 194.730469 179.878906 Z M 194.730469 179.878906 " fill-opacity="1" fill-rule="nonzero"/><path fill="#38b6ff" d="M 271.664062 202.730469 C 271.664062 203.230469 271.617188 203.722656 271.519531 204.214844 C 271.421875 204.707031 271.277344 205.179688 271.085938 205.644531 C 270.894531 206.105469 270.660156 206.542969 270.378906 206.960938 C 270.101562 207.375 269.785156 207.761719 269.433594 208.113281 C 269.078125 208.46875 268.695312 208.785156 268.277344 209.0625 C 267.863281 209.339844 267.425781 209.574219 266.960938 209.765625 C 266.5 209.957031 266.023438 210.101562 265.53125 210.199219 C 265.042969 210.296875 264.546875 210.347656 264.046875 210.347656 C 263.546875 210.347656 263.050781 210.296875 262.5625 210.199219 C 262.070312 210.101562 261.59375 209.957031 261.132812 209.765625 C 260.671875 209.574219 260.230469 209.339844 259.816406 209.0625 C 259.398438 208.785156 259.015625 208.46875 258.660156 208.113281 C 258.308594 207.761719 257.992188 207.375 257.714844 206.960938 C 257.4375 206.542969 257.199219 206.105469 257.007812 205.644531 C 256.816406 205.179688 256.675781 204.707031 256.578125 204.214844 C 256.480469 203.722656 256.429688 203.230469 256.429688 202.730469 C 256.429688 202.230469 256.480469 201.734375 256.578125 201.242188 C 256.675781 200.753906 256.816406 200.277344 257.007812 199.8125 C 257.199219 199.351562 257.4375 198.914062 257.714844 198.496094 C 257.992188 198.082031 258.308594 197.695312 258.660156 197.34375 C 259.015625 196.988281 259.398438 196.671875 259.816406 196.394531 C 260.230469 196.117188 260.671875 195.882812 261.132812 195.691406 C 261.59375 195.5 262.070312 195.355469 262.5625 195.257812 C 263.050781 195.160156 263.546875 195.113281 264.046875 195.113281 C 264.546875 195.113281 265.042969 195.160156 265.53125 195.257812 C 266.023438 195.355469 266.5 195.5 266.960938 195.691406 C 267.425781 195.882812 267.863281 196.117188 268.277344 196.394531 C 268.695312 196.671875 269.078125 196.988281 269.433594 197.34375 C 269.785156 197.695312 270.101562 198.082031 270.378906 198.496094 C 270.660156 198.914062 270.894531 199.351562 271.085938 199.8125 C 271.277344 200.277344 271.421875 200.753906 271.519531 201.242188 C 271.617188 201.734375 271.664062 202.230469 271.664062 202.730469 Z M 271.664062 202.730469 " fill-opacity="1" fill-rule="nonzero"/><g clip-path="url(#e5a198903f)"><path fill="#38b6ff" d="M 251.859375 211.871094 C 236.625 221.011719 213.773438 226.34375 187.875 226.34375 C 141.410156 226.34375 104.085938 208.0625 104.085938 185.210938 C 104.085938 162.359375 141.410156 144.078125 187.875 144.078125 C 234.339844 144.078125 271.664062 162.359375 271.664062 185.210938 C 271.664062 186.734375 271.664062 187.496094 270.902344 189.019531 C 273.949219 190.542969 276.234375 192.828125 276.996094 195.875 C 277.757812 192.828125 278.519531 190.542969 278.519531 187.496094 C 278.519531 162.359375 237.386719 141.792969 187.113281 141.792969 C 136.839844 141.792969 96.46875 162.359375 96.46875 187.496094 C 96.46875 212.632812 137.601562 233.199219 187.875 233.199219 C 216.058594 233.199219 241.195312 227.105469 257.953125 216.441406 C 255.667969 215.679688 253.382812 214.15625 251.859375 211.871094 Z M 251.859375 211.871094 " fill-opacity="1" fill-rule="nonzero"/></g><path fill="#38b6ff" d="M 157.40625 263.667969 C 157.40625 264.167969 157.359375 264.660156 157.261719 265.152344 C 157.164062 265.644531 157.019531 266.117188 156.828125 266.582031 C 156.636719 267.042969 156.402344 267.480469 156.121094 267.898438 C 155.84375 268.3125 155.527344 268.699219 155.175781 269.050781 C 154.820312 269.40625 154.4375 269.722656 154.019531 270 C 153.605469 270.277344 153.167969 270.511719 152.703125 270.703125 C 152.242188 270.894531 151.765625 271.039062 151.273438 271.136719 C 150.785156 271.234375 150.289062 271.285156 149.789062 271.285156 C 149.289062 271.285156 148.792969 271.234375 148.304688 271.136719 C 147.8125 271.039062 147.335938 270.894531 146.875 270.703125 C 146.414062 270.511719 145.972656 270.277344 145.558594 270 C 145.140625 269.722656 144.757812 269.40625 144.402344 269.050781 C 144.050781 268.699219 143.734375 268.3125 143.457031 267.898438 C 143.179688 267.480469 142.941406 267.042969 142.75 266.582031 C 142.558594 266.117188 142.417969 265.644531 142.320312 265.152344 C 142.222656 264.660156 142.171875 264.167969 142.171875 263.667969 C 142.171875 263.167969 142.222656 262.671875 142.320312 262.179688 C 142.417969 261.691406 142.558594 261.214844 142.75 260.75 C 142.941406 260.289062 143.179688 259.851562 143.457031 259.433594 C 143.734375 259.019531 144.050781 258.632812 144.402344 258.28125 C 144.757812 257.925781 145.140625 257.609375 145.558594 257.332031 C 145.972656 257.054688 146.414062 256.820312 146.875 256.628906 C 147.335938 256.4375 147.8125 256.292969 148.304688 256.195312 C 148.792969 256.097656 149.289062 256.050781 149.789062 256.050781 C 150.289062 256.050781 150.785156 256.097656 151.273438 256.195312 C 151.765625 256.292969 152.242188 256.4375 152.703125 256.628906 C 153.167969 256.820312 153.605469 257.054688 154.019531 257.332031 C 154.4375 257.609375 154.820312 257.925781 155.175781 258.28125 C 155.527344 258.632812 155.84375 259.019531 156.121094 259.433594 C 156.402344 259.851562 156.636719 260.289062 156.828125 260.75 C 157.019531 261.214844 157.164062 261.691406 157.261719 262.179688 C 157.359375 262.671875 157.40625 263.167969 157.40625 263.667969 Z M 157.40625 263.667969 " fill-opacity="1" fill-rule="nonzero"/><path fill="#38b6ff" d="M 233.578125 108.277344 C 211.488281 96.089844 173.402344 121.226562 148.265625 164.644531 C 126.175781 202.730469 121.605469 242.339844 135.316406 259.859375 C 136.078125 257.574219 136.839844 255.289062 138.363281 253.765625 C 125.414062 237.769531 129.984375 201.207031 150.550781 166.167969 C 173.402344 125.796875 208.441406 102.945312 227.484375 114.371094 C 247.289062 125.796875 244.242188 166.929688 220.628906 207.300781 C 204.632812 235.484375 182.542969 255.289062 163.5 260.621094 C 163.5 261.382812 163.5 262.90625 163.5 263.667969 C 163.5 265.191406 163.5 266.714844 162.738281 268.238281 C 183.304688 262.90625 207.679688 241.578125 225.960938 210.347656 C 252.621094 166.929688 255.667969 121.226562 233.578125 108.277344 Z M 233.578125 108.277344 " fill-opacity="1" fill-rule="nonzero"/><path fill="#38b6ff" d="M 149.789062 111.324219 C 149.789062 111.824219 149.742188 112.316406 149.644531 112.808594 C 149.546875 113.300781 149.402344 113.773438 149.210938 114.238281 C 149.019531 114.699219 148.785156 115.136719 148.503906 115.554688 C 148.226562 115.96875 147.910156 116.355469 147.558594 116.707031 C 147.203125 117.0625 146.820312 117.378906 146.402344 117.65625 C 145.988281 117.933594 145.550781 118.167969 145.085938 118.359375 C 144.625 118.550781 144.148438 118.695312 143.65625 118.792969 C 143.167969 118.890625 142.671875 118.941406 142.171875 118.941406 C 141.671875 118.941406 141.175781 118.890625 140.6875 118.792969 C 140.195312 118.695312 139.71875 118.550781 139.257812 118.359375 C 138.796875 118.167969 138.355469 117.933594 137.941406 117.65625 C 137.523438 117.378906 137.140625 117.0625 136.785156 116.707031 C 136.433594 116.355469 136.117188 115.96875 135.839844 115.554688 C 135.5625 115.136719 135.324219 114.699219 135.132812 114.238281 C 134.941406 113.773438 134.800781 113.300781 134.703125 112.808594 C 134.605469 112.316406 134.554688 111.824219 134.554688 111.324219 C 134.554688 110.824219 134.605469 110.328125 134.703125 109.835938 C 134.800781 109.347656 134.941406 108.871094 135.132812 108.40625 C 135.324219 107.945312 135.5625 107.507812 135.839844 107.089844 C 136.117188 106.675781 136.433594 106.289062 136.785156 105.9375 C 137.140625 105.582031 137.523438 105.265625 137.941406 104.988281 C 138.355469 104.710938 138.796875 104.476562 139.257812 104.285156 C 139.71875 104.09375 140.195312 103.949219 140.6875 103.851562 C 141.175781 103.753906 141.671875 103.707031 142.171875 103.707031 C 142.671875 103.707031 143.167969 103.753906 143.65625 103.851562 C 144.148438 103.949219 144.625 104.09375 145.085938 104.285156 C 145.550781 104.476562 145.988281 104.710938 146.402344 104.988281 C 146.820312 105.265625 147.203125 105.582031 147.558594 105.9375 C 147.910156 106.289062 148.226562 106.675781 148.503906 107.089844 C 148.785156 107.507812 149.019531 107.945312 149.210938 108.40625 C 149.402344 108.871094 149.546875 109.347656 149.644531 109.835938 C 149.742188 110.328125 149.789062 110.824219 149.789062 111.324219 Z M 149.789062 111.324219 " fill-opacity="1" fill-rule="nonzero"/><path fill="#38b6ff" d="M 227.484375 164.644531 C 206.917969 128.84375 177.972656 105.992188 155.882812 105.230469 C 156.644531 106.753906 157.40625 109.039062 157.40625 111.324219 C 177.210938 109.800781 205.394531 131.890625 225.199219 166.167969 C 248.050781 206.539062 251.097656 247.671875 232.054688 259.097656 C 212.25 270.523438 177.972656 246.910156 155.121094 207.300781 C 136.078125 176.070312 130.746094 144.078125 138.363281 125.796875 C 135.316406 125.035156 133.03125 123.511719 130.746094 121.988281 C 123.128906 141.792969 128.460938 176.832031 148.265625 210.347656 C 173.402344 253.765625 211.488281 278.902344 233.578125 266.714844 C 255.667969 254.527344 252.621094 208.0625 227.484375 164.644531 Z M 227.484375 164.644531 " fill-opacity="1" fill-rule="nonzero"/></svg>